<svg width="40" height="40" viewBox="0 0 40 40" fill="none" xmlns="http://www.w3.org/2000/svg">
<path d="M35 2.5C35.663 2.5 36.2989 2.76339 36.7678 3.23223C37.2366 3.70107 37.5 4.33696 37.5 5V25C37.5 25.663 37.2366 26.2989 36.7678 26.7678C36.2989 27.2366 35.663 27.5 35 27.5H28.75C27.9738 27.5 27.2082 27.6807 26.5139 28.0279C25.8197 28.375 25.2157 28.879 24.75 29.5L20 35.8325L15.25 29.5C14.7843 28.879 14.1803 28.375 13.4861 28.0279C12.7918 27.6807 12.0262 27.5 11.25 27.5H5C4.33696 27.5 3.70107 27.2366 3.23223 26.7678C2.76339 26.2989 2.5 25.663 2.5 25V5C2.5 4.33696 2.76339 3.70107 3.23223 3.23223C3.70107 2.76339 4.33696 2.5 5 2.5H35ZM5 0C3.67392 0 2.40215 0.526784 1.46447 1.46447C0.526784 2.40215 0 3.67392 0 5L0 25C0 26.3261 0.526784 27.5979 1.46447 28.5355C2.40215 29.4732 3.67392 30 5 30H11.25C11.6381 30 12.0209 30.0904 12.368 30.2639C12.7152 30.4375 13.0171 30.6895 13.25 31L18 37.3325C18.2329 37.643 18.5348 37.895 18.882 38.0686C19.2291 38.2421 19.6119 38.3325 20 38.3325C20.3881 38.3325 20.7709 38.2421 21.118 38.0686C21.4652 37.895 21.7671 37.643 22 37.3325L26.75 31C26.9829 30.6895 27.2848 30.4375 27.632 30.2639C27.9791 30.0904 28.3619 30 28.75 30H35C36.3261 30 37.5979 29.4732 38.5355 28.5355C39.4732 27.5979 40 26.3261 40 25V5C40 3.67392 39.4732 2.40215 38.5355 1.46447C37.5979 0.526784 36.3261 0 35 0L5 0Z" fill="#542C7C"/>
<path d="M17.6651 11.9C17.1781 11.1416 16.4581 10.5617 15.6133 10.2476C14.7686 9.93346 13.8447 9.90199 12.9805 10.1579C12.1163 10.4138 11.3586 10.9433 10.8211 11.6668C10.2837 12.3903 9.99553 13.2687 10.0001 14.17C10.0005 14.9163 10.2014 15.6488 10.5817 16.291C10.962 16.9332 11.5077 17.4614 12.1619 17.8206C12.8162 18.1798 13.5549 18.3567 14.3008 18.3328C15.0468 18.309 15.7726 18.0852 16.4026 17.685C16.0751 18.6575 15.4651 19.695 14.4601 20.735C14.2678 20.9339 14.1624 21.201 14.1671 21.4776C14.1718 21.7542 14.2861 22.0177 14.4851 22.21C14.684 22.4022 14.9511 22.5076 15.2277 22.5029C15.5043 22.4982 15.7678 22.3839 15.9601 22.185C19.6751 18.335 19.1926 14.15 17.6651 11.905V11.9ZM27.6651 11.9C27.1781 11.1416 26.4581 10.5617 25.6133 10.2476C24.7686 9.93346 23.8447 9.90199 22.9805 10.1579C22.1163 10.4138 21.3586 10.9433 20.8211 11.6668C20.2837 12.3903 19.9955 13.2687 20.0001 14.17C20.0005 14.9163 20.2014 15.6488 20.5817 16.291C20.962 16.9332 21.5077 17.4614 22.1619 17.8206C22.8162 18.1798 23.5549 18.3567 24.3008 18.3328C25.0468 18.309 25.7726 18.0852 26.4026 17.685C26.0751 18.6575 25.4651 19.695 24.4601 20.735C24.2678 20.9339 24.1624 21.201 24.1671 21.4776C24.1718 21.7542 24.2861 22.0177 24.4851 22.21C24.684 22.4022 24.9511 22.5076 25.2277 22.5029C25.5043 22.4982 25.7678 22.3839 25.9601 22.185C29.6751 18.335 29.1926 14.15 27.6651 11.905V11.9Z" fill="#542C7C"/>
</svg>
