<svg width="40" height="41" viewBox="0 0 40 41" fill="none" xmlns="http://www.w3.org/2000/svg">
<g clip-path="url(#clip0_153_656)">
<path d="M17.5 11.5151C17.5 11.7614 17.4515 12.0052 17.3573 12.2327C17.263 12.4602 17.1249 12.6669 16.9508 12.841C16.7767 13.0151 16.57 13.1532 16.3425 13.2474C16.115 13.3416 15.8712 13.3901 15.625 13.3901C15.3788 13.3901 15.135 13.3416 14.9075 13.2474C14.68 13.1532 14.4733 13.0151 14.2992 12.841C14.1251 12.6669 13.987 12.4602 13.8927 12.2327C13.7985 12.0052 13.75 11.7614 13.75 11.5151C13.75 11.0179 13.9475 10.5409 14.2992 10.1893C14.6508 9.83768 15.1277 9.64014 15.625 9.64014C16.1223 9.64014 16.5992 9.83768 16.9508 10.1893C17.3025 10.5409 17.5 11.0179 17.5 11.5151ZM15.3475 15.3701L18.6725 17.5851L23.3075 12.9476C23.4003 12.8546 23.52 12.7931 23.6497 12.772C23.7795 12.751 23.9125 12.7713 24.03 12.8301L28.75 15.2651V19.6401C28.75 19.9717 28.6183 20.2896 28.3839 20.524C28.1495 20.7584 27.8315 20.8901 27.5 20.8901H12.5C12.1685 20.8901 11.8505 20.7584 11.6161 20.524C11.3817 20.2896 11.25 19.9717 11.25 19.6401V18.3901C11.25 18.3901 15.1 15.2051 15.3475 15.3701ZM12.5 23.3901C12.1685 23.3901 11.8505 23.5218 11.6161 23.7563C11.3817 23.9907 11.25 24.3086 11.25 24.6401C11.25 24.9717 11.3817 25.2896 11.6161 25.524C11.8505 25.7584 12.1685 25.8901 12.5 25.8901H27.5C27.8315 25.8901 28.1495 25.7584 28.3839 25.524C28.6183 25.2896 28.75 24.9717 28.75 24.6401C28.75 24.3086 28.6183 23.9907 28.3839 23.7563C28.1495 23.5218 27.8315 23.3901 27.5 23.3901H12.5ZM12.5 28.3901C12.1685 28.3901 11.8505 28.5218 11.6161 28.7563C11.3817 28.9907 11.25 29.3086 11.25 29.6401C11.25 29.9717 11.3817 30.2896 11.6161 30.524C11.8505 30.7584 12.1685 30.8901 12.5 30.8901H20C20.3315 30.8901 20.6495 30.7584 20.8839 30.524C21.1183 30.2896 21.25 29.9717 21.25 29.6401C21.25 29.3086 21.1183 28.9907 20.8839 28.7563C20.6495 28.5218 20.3315 28.3901 20 28.3901H12.5Z" fill="#542C7C"/>
<path d="M5 5.89014C5 4.56405 5.52678 3.29228 6.46447 2.3546C7.40215 1.41692 8.67392 0.890137 10 0.890137L30 0.890137C31.3261 0.890137 32.5979 1.41692 33.5355 2.3546C34.4732 3.29228 35 4.56405 35 5.89014V35.8901C35 37.2162 34.4732 38.488 33.5355 39.4257C32.5979 40.3633 31.3261 40.8901 30 40.8901H10C8.67392 40.8901 7.40215 40.3633 6.46447 39.4257C5.52678 38.488 5 37.2162 5 35.8901V5.89014ZM30 3.39014H10C9.33696 3.39014 8.70107 3.65353 8.23223 4.12237C7.76339 4.59121 7.5 5.2271 7.5 5.89014V35.8901C7.5 36.5532 7.76339 37.1891 8.23223 37.6579C8.70107 38.1267 9.33696 38.3901 10 38.3901H30C30.663 38.3901 31.2989 38.1267 31.7678 37.6579C32.2366 37.1891 32.5 36.5532 32.5 35.8901V5.89014C32.5 5.2271 32.2366 4.59121 31.7678 4.12237C31.2989 3.65353 30.663 3.39014 30 3.39014Z" fill="#542C7C"/>
</g>
<defs>
<clipPath id="clip0_153_656">
<rect width="40" height="40" fill="white" transform="translate(0 0.890137)"/>
</clipPath>
</defs>
</svg>
