<svg width="12" height="12" viewBox="0 0 12 12" fill="none" xmlns="http://www.w3.org/2000/svg">
<g clip-path="url(#clip0_76_476)">
<path fill-rule="evenodd" clip-rule="evenodd" d="M4.5 8.5L6 7.03C5.805 7.01 5.66 7 5.5 7C4.165 7 1.5 7.67 1.5 9V10H6L4.5 8.5ZM5.5 6C6.605 6 7.5 5.105 7.5 4C7.5 2.895 6.605 2 5.5 2C4.395 2 3.5 2.895 3.5 4C3.5 5.105 4.395 6 5.5 6Z" fill="#0A0A0A"/>
<path fill-rule="evenodd" clip-rule="evenodd" d="M7.735 10.25L6 8.5L6.7 7.795L7.735 8.835L10.3 6.25L11 6.955L7.735 10.25Z" fill="#0A0A0A"/>
</g>
<defs>
<clipPath id="clip0_76_476">
<rect width="12" height="12" fill="white"/>
</clipPath>
</defs>
</svg>
