<svg width="24" height="24" viewBox="0 0 24 24" fill="none" xmlns="http://www.w3.org/2000/svg">
<circle opacity="0.2" cx="12" cy="12" r="12" fill="#30D058"/>
<path d="M11.994 6C8.682 6 6 8.688 6 12C6 15.312 8.682 18 11.994 18C15.312 18 18 15.312 18 12C18 8.688 15.312 6 11.994 6ZM14.4 14.4C14.3445 14.4556 14.2786 14.4998 14.206 14.5299C14.1334 14.56 14.0556 14.5755 13.977 14.5755C13.8984 14.5755 13.8206 14.56 13.748 14.5299C13.6754 14.4998 13.6095 14.4556 13.554 14.4L11.58 12.426C11.5233 12.3704 11.4782 12.3042 11.4473 12.231C11.4164 12.1579 11.4003 12.0794 11.4 12V9.6C11.4 9.27 11.67 9 12 9C12.33 9 12.6 9.27 12.6 9.6V11.754L14.4 13.554C14.634 13.788 14.634 14.166 14.4 14.4Z" fill="#30D058"/>
</svg>
