<svg width="24" height="24" viewBox="0 0 24 24" fill="none" xmlns="http://www.w3.org/2000/svg">
<circle opacity="0.2" cx="12" cy="12" r="12" fill="#F89D3D"/>
<path d="M16.6445 9.87341L13.3469 9.37156L11.8728 6.24209C11.8325 6.15641 11.7663 6.08705 11.6845 6.04489C11.4792 5.9388 11.2299 6.02721 11.1273 6.24209L9.65317 9.37156L6.35558 9.87341C6.26467 9.88701 6.18155 9.93189 6.11791 9.9999C6.04097 10.0827 5.99858 10.1941 6.00004 10.3096C6.0015 10.4252 6.0467 10.5354 6.1257 10.616L8.51155 13.0518L7.94788 16.4914C7.93466 16.5714 7.94312 16.6537 7.97229 16.7289C8.00146 16.8042 8.05017 16.8693 8.11291 16.9171C8.17565 16.9648 8.24991 16.9931 8.32725 16.9989C8.4046 17.0047 8.48194 16.9876 8.55051 16.9497L11.5 15.3258L14.4495 16.9497C14.5301 16.9946 14.6236 17.0096 14.7132 16.9932C14.9392 16.9524 15.0911 16.728 15.0522 16.4914L14.4885 13.0518L16.8744 10.616C16.9393 10.5494 16.9821 10.4623 16.9951 10.3671C17.0302 10.1291 16.8718 9.90877 16.6445 9.87341Z" fill="#F89D3D"/>
</svg>
