<svg width="24" height="24" viewBox="0 0 24 24" fill="none" xmlns="http://www.w3.org/2000/svg">
<circle cx="12" cy="12" r="12" fill="#E47810"/>
<g clip-path="url(#clip0_72_471)">
<path d="M16.6667 8.49996H14.3334V7.33329C14.3334 6.68579 13.8142 6.16663 13.1667 6.16663H10.8334C10.1859 6.16663 9.66675 6.68579 9.66675 7.33329V8.49996H7.33341C6.68591 8.49996 6.17258 9.01913 6.17258 9.66663L6.16675 16.0833C6.16675 16.7308 6.68591 17.25 7.33341 17.25H16.6667C17.3142 17.25 17.8334 16.7308 17.8334 16.0833V9.66663C17.8334 9.01913 17.3142 8.49996 16.6667 8.49996ZM13.1667 8.49996H10.8334V7.33329H13.1667V8.49996Z" fill="white"/>
</g>
<defs>
<clipPath id="clip0_72_471">
<rect width="14" height="14" fill="white" transform="translate(5 5)"/>
</clipPath>
</defs>
</svg>
